<?xml version="1.0" encoding="iso-8859-1"?>
<!-- Generator: Adobe Illustrator 16.0.0, SVG Export Plug-In . SVG Version: 6.00 Build 0)  -->
<!DOCTYPE svg PUBLIC "-//W3C//DTD SVG 1.1//EN" "http://www.w3.org/Graphics/SVG/1.1/DTD/svg11.dtd">
<svg version="1.1" id="&#x5716;&#x5C64;_1" xmlns="http://www.w3.org/2000/svg" xmlns:xlink="http://www.w3.org/1999/xlink" x="0px"
	 y="0px" width="46px" height="46px" viewBox="0 0 46 46" style="enable-background:new 0 0 46 46;" xml:space="preserve">
<circle style="fill:#34495E;" cx="23" cy="23" r="23"/>
<g>
	<path style="fill:#FFFFFF;" d="M13.962,21.337h-2.591v-1.164h6.584v1.164h-2.603V29h-1.391V21.337z"/>
	<path style="fill:#FFFFFF;" d="M18.667,24.551c0-2.842,1.571-4.545,3.838-4.545c2.266,0,3.85,1.703,3.85,4.545
		c0,2.843-1.584,4.605-3.85,4.605C20.239,29.156,18.667,27.394,18.667,24.551z M24.928,24.551c0-2.075-0.959-3.334-2.422-3.334
		s-2.411,1.259-2.411,3.334c0,2.075,0.947,3.395,2.411,3.395S24.928,26.626,24.928,24.551z"/>
	<path style="fill:#FFFFFF;" d="M28.195,20.173h2.674c1.967,0,3.371,0.671,3.371,2.663c0,1.931-1.404,2.818-3.322,2.818h-1.332V29
		h-1.391V20.173z M30.785,24.539c1.416,0,2.088-0.54,2.088-1.703c0-1.164-0.732-1.547-2.135-1.547h-1.152v3.25H30.785z"/>
</g>
</svg>
